<svg width="929" height="929" viewBox="0 0 929 929" fill="none" xmlns="http://www.w3.org/2000/svg">
<path d="M0.0238309 403.756C0.0589871 406.924 0.16055 410.076 0.267971 413.219C1.31485 443.387 5.80117 472.443 14.1234 499.035C30.266 550.617 59.514 592.922 106.897 619.029C241.83 596.588 341.65 528.307 379.723 431.224C418.033 333.537 396.065 202.521 274.379 49.5093L269.617 43.4663C255.424 39.7515 241.619 38.4468 228.172 39.1948C228.494 40.0151 228.856 40.8062 229.149 41.6362C238.055 66.8023 235.373 96.3238 221.278 124.339C193.088 180.375 129.813 214.398 73.3285 199.349C65.2534 197.201 57.5259 193.913 50.3793 189.584C39.3187 211.627 29.7738 235.166 22.1215 259.531C7.37538 306.468 -0.491794 356.283 0.0238309 403.756ZM11.8656 690.69C12.6273 731.674 30.8812 771.08 60.4496 800.309C97.9046 837.33 152.319 858.721 212.612 845.834C182.471 815.889 160.619 777.084 150.963 732.369L144.557 723.092L96.887 654.49C73.1019 642.252 52.6683 626.58 35.4808 608.287C18.4223 635.467 11.3598 663.516 11.8617 690.686L11.8656 690.69ZM46.4711 116.226C46.5394 122.8 47.6625 128.91 49.5843 134.351C54.7015 148.867 65.1117 159.384 82.7288 164.078C117.992 173.472 168.033 148.974 188.686 107.925C199.008 87.398 199.846 68.2573 194.727 53.7847C189.608 39.312 179.16 28.8237 161.524 24.1225C126.256 14.728 76.2542 39.2104 55.6253 80.2163C50.4886 90.4312 47.6429 100.345 46.7777 109.513C46.5588 111.744 46.4565 113.985 46.4711 116.226ZM73.9984 371.773C73.9535 334.619 95.5413 300.605 131.006 292.976C172.846 283.98 212.182 316.394 221.703 360.666C231.225 404.937 208.676 450.666 166.832 459.662C124.996 468.66 85.6566 436.244 76.137 391.974C74.9456 386.441 74.2757 380.881 74.0609 375.373C74.016 374.168 74.0023 372.97 74.0023 371.771L73.9984 371.773ZM110.436 369.699C110.331 374.599 110.803 379.495 111.842 384.285C117.883 412.387 140.319 428.068 159.143 424.019C177.967 419.972 192.041 396.455 185.998 368.355C179.955 340.256 157.459 324.634 138.635 328.683C123.194 332.004 110.991 348.398 110.436 369.699ZM138.326 650.156L164.94 688.486C250.746 640.953 342.147 637.236 410.057 669.014C477.289 700.479 519.66 769.623 505.578 856.272L530.539 861.885C545.82 786.651 586.926 747.615 634.543 736.274C682.187 724.926 732.365 737.192 772.91 750.434L797.383 727.67C648.496 693.967 577.98 591.014 586.508 493.842C595.265 394.051 687.152 305.867 836.937 308.845L833.031 284.127C707.924 288.453 611.828 274.299 534.812 236.033C457.703 197.724 400.965 135.33 353.598 48.8999L322.592 52.562C432.432 201.855 455.449 338.119 413.719 444.527C372.488 549.672 270.111 621.981 138.328 650.152L138.326 650.156ZM185.266 718.881C196.149 779.076 232.428 825.615 281.699 852.061C333.887 880.069 400.768 885.369 468.467 856.637C484.014 780.301 451.025 728.434 394.611 702.035C339.869 676.418 261.272 677.793 185.262 718.881H185.266ZM390.647 40.8452C434.338 117.853 484.156 170.084 551.047 203.318C622.916 239.027 716.105 252.986 844.259 247.322C843.361 217.654 834.92 188.615 820.334 161.082C795.836 114.841 753.685 73.4644 702.111 44.4468C611.369 -6.60795 493.4 -19.5474 390.647 40.8452ZM407.432 563.061C407.324 545.184 411.916 528.578 420.918 515.025C432.922 496.955 453.555 484.935 476.826 484.935C523.316 484.935 562.334 525.58 571.064 574.963C575.428 599.639 571.232 623.174 559.223 641.246C547.215 659.318 526.598 671.275 503.314 671.275C456.752 671.275 417.803 630.654 409.076 581.309C408.014 575.283 407.464 569.179 407.43 563.061H407.432ZM443.928 562.938C443.947 566.746 444.283 570.764 445.027 574.963C450.969 608.576 480.047 634.777 503.314 634.777C514.947 634.777 522.84 630.055 528.826 621.047C534.812 612.037 538.084 598.113 535.115 581.311C529.178 547.74 499.939 521.496 476.824 521.496C465.209 521.496 457.297 526.223 451.311 535.23C446.822 541.988 443.869 551.514 443.928 562.938ZM562.951 887.037C572.486 898.912 584.67 908.137 598.537 914.987C626.291 928.709 661.041 931.803 691.674 923.658C722.306 915.514 748.314 896.901 762.23 867.444C771.816 847.151 775.965 820.94 770.41 787.854C730.769 774.389 681.293 762.686 643.027 771.799C604.355 781.014 573.412 807.082 563.072 886.303L562.951 886.973V887.037ZM622.338 512.887C623.705 591.063 685.697 674.092 830.162 696.969C869.082 673.918 902.652 629.238 918.482 575.082C939.777 502.217 929.795 415.765 860.802 346.443L856.955 346.138C707.84 334.263 630.26 413.014 622.887 497.017C622.429 502.295 622.246 507.592 622.34 512.889L622.338 512.887Z" fill="#C23700"/>
</svg>
